<svg xmlns="http://www.w3.org/2000/svg" viewBox="0 0 100 100">
  <!-- 猫头轮廓 -->
  <circle cx="50" cy="55" r="35" fill="#ff9500"/>
  <!-- 猫耳朵 -->
  <polygon points="25,30 35,45 18,45" fill="#ff9500"/>
  <polygon points="75,30 65,45 82,45" fill="#ff9500"/>
  <polygon points="27,33 34,43 22,43" fill="#ffaa33"/>
  <polygon points="73,33 66,43 78,43" fill="#ffaa33"/>
  <!-- 眼睛 -->
  <ellipse cx="38" cy="50" rx="6" ry="8" fill="#ffffff"/>
  <ellipse cx="62" cy="50" rx="6" ry="8" fill="#ffffff"/>
  <circle cx="39" cy="51" r="4" fill="#1a1a1a"/>
  <circle cx="63" cy="51" r="4" fill="#1a1a1a"/>
  <circle cx="40" cy="50" r="1.5" fill="#ffffff"/>
  <circle cx="64" cy="50" r="1.5" fill="#ffffff"/>
  <!-- 鼻子和嘴巴 -->
  <polygon points="50,58 47,63 53,63" fill="#ff6b6b"/>
  <path d="M50 63 Q45 68 42 65 M50 63 Q55 68 58 65" stroke="#1a1a1a" stroke-width="2" fill="none"/>
  <!-- 腮红 -->
  <circle cx="30" cy="60" r="5" fill="#ffb6c1" opacity="0.6"/>
  <circle cx="70" cy="60" r="5" fill="#ffb6c1" opacity="0.6"/>
  <!-- 胡须 -->
  <line x1="25" y1="55" x2="10" y2="52" stroke="#1a1a1a" stroke-width="1.5"/>
  <line x1="25" y1="58" x2="10" y2="58" stroke="#1a1a1a" stroke-width="1.5"/>
  <line x1="25" y1="61" x2="10" y2="64" stroke="#1a1a1a" stroke-width="1.5"/>
  <line x1="75" y1="55" x2="90" y2="52" stroke="#1a1a1a" stroke-width="1.5"/>
  <line x1="75" y1="58" x2="90" y2="58" stroke="#1a1a1a" stroke-width="1.5"/>
  <line x1="75" y1="61" x2="90" y2="64" stroke="#1a1a1a" stroke-width="1.5"/>
  <!-- RSS 信号波 -->
  <path d="M70 18 Q85 18 85 30" stroke="#ff9500" stroke-width="3" fill="none" stroke-linecap="round"/>
  <path d="M75 12 Q95 12 95 30" stroke="#ff9500" stroke-width="3" fill="none" stroke-linecap="round"/>
  <circle cx="80" cy="30" r="4" fill="#ff9500"/>
</svg>
